<svg xmlns="http://www.w3.org/2000/svg" viewBox="0 0 900 675" role="img" aria-label="Before and after exterior wash placeholder">
  <rect width="900" height="675" fill="#141820"/>
  <rect width="450" height="675" fill="#4d4a43"/>
  <rect x="450" width="450" height="675" fill="#151b23"/>
  <path d="M92 411c69-91 136-136 249-142 99 9 163 53 211 142v73H92Z" fill="#2d333c"/>
  <path d="M514 411c69-91 136-136 249-142 99 9 163 53 211 142v73H514Z" fill="#0f141b"/>
  <circle cx="210" cy="486" r="54" fill="#111"/>
  <circle cx="395" cy="486" r="54" fill="#111"/>
  <circle cx="632" cy="486" r="54" fill="#05070a"/>
  <circle cx="817" cy="486" r="54" fill="#05070a"/>
  <path d="M104 351c118 36 237 37 357 0" stroke="#856a4b" stroke-width="13" stroke-linecap="round" opacity=".7"/>
  <path d="M540 351c117 36 237 37 357 0" stroke="#d8a94d" stroke-width="13" stroke-linecap="round"/>
  <text x="42" y="76" fill="#fff" font-family="Arial" font-size="42" font-weight="700">Before</text>
  <text x="493" y="76" fill="#fff" font-family="Arial" font-size="42" font-weight="700">After</text>
  <line x1="450" y1="0" x2="450" y2="675" stroke="#fff" stroke-width="5" opacity=".65"/>
</svg>
