<svg xmlns="http://www.w3.org/2000/svg" viewBox="0 0 900 675" role="img" aria-label="Before and after interior detail placeholder">
  <rect width="900" height="675" fill="#11151c"/>
  <rect width="450" height="675" fill="#2c2522"/>
  <rect x="450" width="450" height="675" fill="#1a2228"/>
  <path d="M74 450c49-145 98-229 210-268 92 55 130 135 140 268Z" fill="#47332c"/>
  <path d="M531 450c50-145 99-229 211-268 91 55 129 135 139 268Z" fill="#202b35"/>
  <path d="M106 486h287v83H106z" fill="#2b201d"/>
  <path d="M563 486h287v83H563z" fill="#111821"/>
  <g fill="#9b6f51" opacity=".5">
    <circle cx="139" cy="248" r="18"/><circle cx="218" cy="386" r="12"/><circle cx="322" cy="315" r="16"/>
  </g>
  <path d="M552 270h280" stroke="#d8a94d" stroke-width="10" stroke-linecap="round"/>
  <text x="42" y="76" fill="#fff" font-family="Arial" font-size="42" font-weight="700">Before</text>
  <text x="493" y="76" fill="#fff" font-family="Arial" font-size="42" font-weight="700">After</text>
  <line x1="450" y1="0" x2="450" y2="675" stroke="#fff" stroke-width="5" opacity=".65"/>
</svg>
